ffmpeg started on 2026-03-24 at 13:09:03
Report written to "D:\Convert\FFMetrics\reports\psnr_report-6.txt"
Log level: 32
Command line:
ffmpeg -hide_banner -nostdin -r 24000/1001 -i "F:\\\xc0\xed\xe8\xec\xe5\\LightFamily\\\xcc\xee\xe6\xe5\xf2 \xeb\xe8 \xf1\xf3\xf9\xe5\xf1\xf2\xe2\xee\xe2\xe0\xf2\xfc \xe4\xf0\xf3\xe6\xe1\xe0 \xec\xe5\xe6\xe4\xf3 \xec\xf3\xe6\xf7\xe8\xed\xee\xe9 \xe8 \xe6\xe5\xed\xf9\xe8\xed\xee\xe9 (\xcd\xe5\xf2, \xfd\xf2\xee \xed\xe5 \xf2\xe0\xea!)\\LightFamilyDUB_\xcc\xee\xe6\xe5\xf2_\xeb\xe8_\xf1\xf3\xf9\xe5\xf1\xf2\xe2\xee\xe2\xe0\xf2\xfc_\xe4\xf0\xf3\xe6\xe1\xe0_\xec\xe5\xe6\xe4\xf3_\xef\xe0\xf0\xed\xe5\xec_\xe8_\xe4\xe5\xe2\xf3\xf8\xea\xee\xe9_11_HEVC.mkv" -r 24000/1001 -i "F:\\\xc0\xed\xe8\xec\xe5\\LightFamily\\\xcc\xee\xe6\xe5\xf2 \xeb\xe8 \xf1\xf3\xf9\xe5\xf1\xf2\xe2\xee\xe2\xe0\xf2\xfc \xe4\xf0\xf3\xe6\xe1\xe0 \xec\xe5\xe6\xe4\xf3 \xec\xf3\xe6\xf7\xe8\xed\xee\xe9 \xe8 \xe6\xe5\xed\xf9\xe8\xed\xee\xe9 (\xcd\xe5\xf2, \xfd\xf2\xee \xed\xe5 \xf2\xe0\xea!)\\LightFamilyDUB_\xcc\xee\xe6\xe5\xf2_\xeb\xe8_\xf1\xf3\xf9\xe5\xf1\xf2\xe2\xee\xe2\xe0\xf2\xfc_\xe4\xf0\xf3\xe6\xe1\xe0_\xec\xe5\xe6\xe4\xf3_\xef\xe0\xf0\xed\xe5\xec_\xe8_\xe4\xe5\xe2\xf3\xf8\xea\xee\xe9_11.mp4" -lavfi "[0:v]settb=AVTB,setpts=PTS-STARTPTS,format=pix_fmts=yuv420p10le,fps=24000/1001,scale=1920:1080:flags=lanczos:param0=3:out_range=limited:out_color_matrix=bt709:out_chroma_loc=left,setsar=1/1,setdar=(1920/1080)*(1/1),colorspace=format=yuv420p10:range=tv:primaries=bt709:trc=bt709:space=bt709:fast=0[main];[1:v]settb=AVTB,setpts=PTS-STARTPTS,format=pix_fmts=yuv420p,fps=24000/1001,scale=1920:1080:flags=lanczos:param0=3:out_range=limited:out_color_matrix=bt709:out_chroma_loc=left,setsar=1/1,setdar=(1920/1080)*(1/1),colorspace=format=yuv420p:range=tv:primaries=bt709:trc=bt709:space=bt709:fast=0[ref];[main][ref]psnr=eof_action=endall:stats_file='D\\:/Convert/FFMetrics/logs/psnr_logfile-6.txt'" -f null -
Input #0, matroska,webm, from 'F:\Аниме\LightFamily\Может ли существовать дружба между мужчиной и женщиной (Нет, это не так!)\LightFamilyDUB_Может_ли_существовать_дружба_между_парнем_и_девушкой_11_HEVC.mkv':
  Metadata:
    COMPATIBLE_BRANDS: mp42mp41
    MAJOR_BRAND     : mp42
    MINOR_VERSION   : 0
    ENCODER         : Lavf61.7.100
  Duration: 00:23:40.07, start: -0.021000, bitrate: 919 kb/s
  Stream #0:0(eng): Video: hevc (Main 10), yuv420p10le(tv, bt709, progressive), 1920x1080 [SAR 1:1 DAR 16:9], 23.98 fps, 23.98 tbr, 1k tbn (default)
      Metadata:
        HANDLER_NAME    : Mainconcept Video Media Handler
        VENDOR_ID       : [0][0][0][0]
        ENCODER         : Lavc61.19.100 libx265
        BPS             : 723158
        DURATION        : 00:23:40.043708333
        NUMBER_OF_FRAMES: 34047
        NUMBER_OF_BYTES : 128364452
        _STATISTICS_WRITING_APP: mkvpropedit v94.0 ('Initiate') 64-bit
        _STATISTICS_WRITING_DATE_UTC: 2026-03-23 14:48:37
        _STATISTICS_TAGS: BPS DURATION NUMBER_OF_FRAMES NUMBER_OF_BYTES
  Stream #0:1(eng): Audio: aac (LC), 48000 Hz, stereo, fltp (default)
      Metadata:
        HANDLER_NAME    : #Mainconcept MP4 Sound Media Handler
        VENDOR_ID       : [0][0][0][0]
        ENCODER         : Lavc61.19.100 aac
        BPS             : 192532
        DURATION        : 00:23:40.053000000
        NUMBER_OF_FRAMES: 66566
        NUMBER_OF_BYTES : 34175848
        _STATISTICS_WRITING_APP: mkvpropedit v94.0 ('Initiate') 64-bit
        _STATISTICS_WRITING_DATE_UTC: 2026-03-23 14:48:37
        _STATISTICS_TAGS: BPS DURATION NUMBER_OF_FRAMES NUMBER_OF_BYTES
Input #1, mov,mp4,m4a,3gp,3g2,mj2, from 'F:\Аниме\LightFamily\Может ли существовать дружба между мужчиной и женщиной (Нет, это не так!)\LightFamilyDUB_Может_ли_существовать_дружба_между_парнем_и_девушкой_11.mp4':
  Metadata:
    major_brand     : mp42
    minor_version   : 0
    compatible_brands: mp42mp41
    creation_time   : 2026-01-29T21:19:36.000000Z
  Duration: 00:23:40.04, start: 0.000000, bitrate: 8387 kb/s
  Stream #1:0[0x1](eng): Video: h264 (Main) (avc1 / 0x31637661), yuv420p(tv, bt709, progressive), 1920x1080, 8002 kb/s, 23.98 fps, 23.98 tbr, 24k tbn (default)
      Metadata:
        creation_time   : 2026-01-29T21:19:36.000000Z
        handler_name    : Mainconcept Video Media Handler
        vendor_id       : [0][0][0][0]
        encoder         : AVC Coding
  Stream #1:1[0x2](eng): Audio: aac (LC) (mp4a / 0x6134706D), 48000 Hz, stereo, fltp, 381 kb/s (default)
      Metadata:
        creation_time   : 2026-01-29T21:19:36.000000Z
        handler_name    : #Mainconcept MP4 Sound Media Handler
        vendor_id       : [0][0][0][0]
Stream mapping:
  Stream #0:0 (hevc) -> settb:default
  Stream #1:0 (h264) -> settb:default
  psnr:default -> Stream #0:0 (wrapped_avframe)
  Stream #0:1 -> #0:1 (aac (native) -> pcm_s16le (native))
Output #0, null, to 'pipe:':
  Metadata:
    COMPATIBLE_BRANDS: mp42mp41
    MAJOR_BRAND     : mp42
    MINOR_VERSION   : 0
    encoder         : Lavf61.7.100
  Stream #0:0: Video: wrapped_avframe, yuv420p10le(tv, bt709, progressive), 1920x1080 [SAR 1:1 DAR 16:9], q=2-31, 200 kb/s, 23.98 fps, 23.98 tbn
      Metadata:
        encoder         : Lavc61.19.100 wrapped_avframe
  Stream #0:1(eng): Audio: pcm_s16le, 48000 Hz, stereo, s16, 1536 kb/s (default)
      Metadata:
        HANDLER_NAME    : #Mainconcept MP4 Sound Media Handler
        VENDOR_ID       : [0][0][0][0]
        _STATISTICS_TAGS: BPS DURATION NUMBER_OF_FRAMES NUMBER_OF_BYTES
        BPS             : 192532
        DURATION        : 00:23:40.053000000
        NUMBER_OF_FRAMES: 66566
        NUMBER_OF_BYTES : 34175848
        _STATISTICS_WRITING_APP: mkvpropedit v94.0 ('Initiate') 64-bit
        _STATISTICS_WRITING_DATE_UTC: 2026-03-23 14:48:37
        encoder         : Lavc61.19.100 pcm_s16le
frame=  157 fps=0.0 q=-0.0 size=N/A time=00:00:06.54 bitrate=N/A speed=12.7x    frame=  352 fps=342 q=-0.0 size=N/A time=00:00:14.68 bitrate=N/A speed=14.3x    frame=  488 fps=314 q=-0.0 size=N/A time=00:00:20.35 bitrate=N/A speed=13.1x    frame=  605 fps=293 q=-0.0 size=N/A time=00:00:25.23 bitrate=N/A speed=12.2x    frame=  775 fps=301 q=-0.0 size=N/A time=00:00:32.32 bitrate=N/A speed=12.6x    frame=  976 fps=315 q=-0.0 size=N/A time=00:00:40.70 bitrate=N/A speed=13.1x    frame= 1175 fps=325 q=-0.0 size=N/A time=00:00:49.00 bitrate=N/A speed=13.6x    frame= 1344 fps=326 q=-0.0 size=N/A time=00:00:56.05 bitrate=N/A speed=13.6x    frame= 1500 fps=323 q=-0.0 size=N/A time=00:01:02.56 bitrate=N/A speed=13.5x    frame= 1675 fps=325 q=-0.0 size=N/A time=00:01:09.86 bitrate=N/A speed=13.5x    frame= 1866 fps=329 q=-0.0 size=N/A time=00:01:17.82 bitrate=N/A speed=13.7x    frame= 2046 fps=331 q=-0.0 size=N/A time=00:01:25.33 bitrate=N/A speed=13.8x    frame= 2223 fps=331 q=-0.0 size=N/A time=00:01:32.71 bitrate=N/A speed=13.8x    frame= 2385 fps=330 q=-0.0 size=N/A time=00:01:39.47 bitrate=N/A speed=13.8x    frame= 2553 fps=330 q=-0.0 size=N/A time=00:01:46.48 bitrate=N/A speed=13.8x    frame= 2712 fps=328 q=-0.0 size=N/A time=00:01:53.11 bitrate=N/A speed=13.7x    frame= 2896 fps=330 q=-0.0 size=N/A time=00:02:00.78 bitrate=N/A speed=13.7x    frame= 3066 fps=330 q=-0.0 size=N/A time=00:02:07.87 bitrate=N/A speed=13.7x    frame= 3234 fps=330 q=-0.0 size=N/A time=00:02:14.88 bitrate=N/A speed=13.7x    frame= 3431 fps=332 q=-0.0 size=N/A time=00:02:23.10 bitrate=N/A speed=13.9x    frame= 3635 fps=335 q=-0.0 size=N/A time=00:02:31.60 bitrate=N/A speed=  14x    frame= 3830 fps=337 q=-0.0 size=N/A time=00:02:39.74 bitrate=N/A speed=14.1x    frame= 4012 fps=338 q=-0.0 size=N/A time=00:02:47.33 bitrate=N/A speed=14.1x    frame= 4208 fps=339 q=-0.0 size=N/A time=00:02:55.50 bitrate=N/A speed=14.2x    frame= 4403 fps=341 q=-0.0 size=N/A time=00:03:03.64 bitrate=N/A speed=14.2x    frame= 4590 fps=342 q=-0.0 size=N/A time=00:03:11.44 bitrate=N/A speed=14.3x    frame= 4780 fps=343 q=-0.0 size=N/A time=00:03:19.36 bitrate=N/A speed=14.3x    frame= 4973 fps=344 q=-0.0 size=N/A time=00:03:27.41 bitrate=N/A speed=14.3x    frame= 5163 fps=345 q=-0.0 size=N/A time=00:03:35.34 bitrate=N/A speed=14.4x    frame= 5356 fps=346 q=-0.0 size=N/A time=00:03:43.38 bitrate=N/A speed=14.4x    frame= 5563 fps=348 q=-0.0 size=N/A time=00:03:52.02 bitrate=N/A speed=14.5x    frame= 5757 fps=349 q=-0.0 size=N/A time=00:04:00.11 bitrate=N/A speed=14.5x    frame= 5956 fps=350 q=-0.0 size=N/A time=00:04:08.41 bitrate=N/A speed=14.6x    frame= 6138 fps=350 q=-0.0 size=N/A time=00:04:16.00 bitrate=N/A speed=14.6x    frame= 6329 fps=350 q=-0.0 size=N/A time=00:04:23.97 bitrate=N/A speed=14.6x    frame= 6519 fps=351 q=-0.0 size=N/A time=00:04:31.89 bitrate=N/A speed=14.6x    frame= 6711 fps=351 q=-0.0 size=N/A time=00:04:39.90 bitrate=N/A speed=14.7x    frame= 6899 fps=352 q=-0.0 size=N/A time=00:04:47.74 bitrate=N/A speed=14.7x    frame= 7062 fps=351 q=-0.0 size=N/A time=00:04:54.54 bitrate=N/A speed=14.6x    frame= 7258 fps=352 q=-0.0 size=N/A time=00:05:02.71 bitrate=N/A speed=14.7x    frame= 7458 fps=352 q=-0.0 size=N/A time=00:05:11.06 bitrate=N/A speed=14.7x    frame= 7651 fps=353 q=-0.0 size=N/A time=00:05:19.11 bitrate=N/A speed=14.7x    frame= 7846 fps=354 q=-0.0 size=N/A time=00:05:27.24 bitrate=N/A speed=14.8x    frame= 8041 fps=354 q=-0.0 size=N/A time=00:05:35.37 bitrate=N/A speed=14.8x    frame= 8236 fps=355 q=-0.0 size=N/A time=00:05:43.50 bitrate=N/A speed=14.8x    frame= 8427 fps=355 q=-0.0 size=N/A time=00:05:51.47 bitrate=N/A speed=14.8x    frame= 8628 fps=356 q=-0.0 size=N/A time=00:05:59.85 bitrate=N/A speed=14.8x    frame= 8828 fps=356 q=-0.0 size=N/A time=00:06:08.20 bitrate=N/A speed=14.9x    frame= 9017 fps=357 q=-0.0 size=N/A time=00:06:16.08 bitrate=N/A speed=14.9x    frame= 9211 fps=357 q=-0.0 size=N/A time=00:06:24.17 bitrate=N/A speed=14.9x    frame= 9405 fps=357 q=-0.0 size=N/A time=00:06:32.26 bitrate=N/A speed=14.9x    frame= 9589 fps=357 q=-0.0 size=N/A time=00:06:39.94 bitrate=N/A speed=14.9x    frame= 9770 fps=357 q=-0.0 size=N/A time=00:06:47.49 bitrate=N/A speed=14.9x    frame= 9979 fps=358 q=-0.0 size=N/A time=00:06:56.20 bitrate=N/A speed=14.9x    frame=10170 fps=358 q=-0.0 size=N/A time=00:07:04.17 bitrate=N/A speed=14.9x    frame=10362 fps=359 q=-0.0 size=N/A time=00:07:12.18 bitrate=N/A speed=  15x    frame=10565 fps=359 q=-0.0 size=N/A time=00:07:20.64 bitrate=N/A speed=  15x    frame=10754 fps=359 q=-0.0 size=N/A time=00:07:28.53 bitrate=N/A speed=  15x    frame=10961 fps=360 q=-0.0 size=N/A time=00:07:37.16 bitrate=N/A speed=  15x    frame=11153 fps=360 q=-0.0 size=N/A time=00:07:45.17 bitrate=N/A speed=  15x    frame=11352 fps=361 q=-0.0 size=N/A time=00:07:53.47 bitrate=N/A speed=  15x    frame=11557 fps=361 q=-0.0 size=N/A time=00:08:02.02 bitrate=N/A speed=15.1x    frame=11752 fps=362 q=-0.0 size=N/A time=00:08:10.15 bitrate=N/A speed=15.1x    frame=11946 fps=362 q=-0.0 size=N/A time=00:08:18.24 bitrate=N/A speed=15.1x    frame=12137 fps=362 q=-0.0 size=N/A time=00:08:26.21 bitrate=N/A speed=15.1x    frame=12284 fps=361 q=-0.0 size=N/A time=00:08:32.34 bitrate=N/A speed=  15x    frame=12479 fps=361 q=-0.0 size=N/A time=00:08:40.47 bitrate=N/A speed=15.1x    frame=12676 fps=361 q=-0.0 size=N/A time=00:08:48.69 bitrate=N/A speed=15.1x    frame=12878 fps=362 q=-0.0 size=N/A time=00:08:57.11 bitrate=N/A speed=15.1x    frame=13070 fps=362 q=-0.0 size=N/A time=00:09:05.12 bitrate=N/A speed=15.1x    frame=13259 fps=362 q=-0.0 size=N/A time=00:09:13.01 bitrate=N/A speed=15.1x    frame=13453 fps=362 q=-0.0 size=N/A time=00:09:21.10 bitrate=N/A speed=15.1x    frame=13633 fps=362 q=-0.0 size=N/A time=00:09:28.60 bitrate=N/A speed=15.1x    frame=13820 fps=362 q=-0.0 size=N/A time=00:09:36.40 bitrate=N/A speed=15.1x    frame=14003 fps=362 q=-0.0 size=N/A time=00:09:44.04 bitrate=N/A speed=15.1x    frame=14198 fps=362 q=-0.0 size=N/A time=00:09:52.17 bitrate=N/A speed=15.1x    frame=14393 fps=362 q=-0.0 size=N/A time=00:10:00.30 bitrate=N/A speed=15.1x    frame=14577 fps=362 q=-0.0 size=N/A time=00:10:07.98 bitrate=N/A speed=15.1x    frame=14772 fps=362 q=-0.0 size=N/A time=00:10:16.11 bitrate=N/A speed=15.1x    frame=14961 fps=363 q=-0.0 size=N/A time=00:10:23.99 bitrate=N/A speed=15.1x    frame=15140 fps=362 q=-0.0 size=N/A time=00:10:31.46 bitrate=N/A speed=15.1x    frame=15333 fps=362 q=-0.0 size=N/A time=00:10:39.51 bitrate=N/A speed=15.1x    frame=15527 fps=363 q=-0.0 size=N/A time=00:10:47.60 bitrate=N/A speed=15.1x    frame=15726 fps=363 q=-0.0 size=N/A time=00:10:55.90 bitrate=N/A speed=15.1x    frame=15913 fps=363 q=-0.0 size=N/A time=00:11:03.70 bitrate=N/A speed=15.1x    frame=16109 fps=363 q=-0.0 size=N/A time=00:11:11.87 bitrate=N/A speed=15.1x    frame=16305 fps=363 q=-0.0 size=N/A time=00:11:20.05 bitrate=N/A speed=15.2x    frame=16497 fps=363 q=-0.0 size=N/A time=00:11:28.06 bitrate=N/A speed=15.2x    frame=16683 fps=363 q=-0.0 size=N/A time=00:11:35.82 bitrate=N/A speed=15.2x    frame=16872 fps=363 q=-0.0 size=N/A time=00:11:43.70 bitrate=N/A speed=15.2x    frame=17066 fps=364 q=-0.0 size=N/A time=00:11:51.79 bitrate=N/A speed=15.2x    frame=17259 fps=364 q=-0.0 size=N/A time=00:11:59.84 bitrate=N/A speed=15.2x    frame=17449 fps=364 q=-0.0 size=N/A time=00:12:07.76 bitrate=N/A speed=15.2x    frame=17631 fps=364 q=-0.0 size=N/A time=00:12:15.35 bitrate=N/A speed=15.2x    frame=17827 fps=364 q=-0.0 size=N/A time=00:12:23.53 bitrate=N/A speed=15.2x    frame=18014 fps=364 q=-0.0 size=N/A time=00:12:31.33 bitrate=N/A speed=15.2x    frame=18207 fps=364 q=-0.0 size=N/A time=00:12:39.38 bitrate=N/A speed=15.2x    frame=18395 fps=364 q=-0.0 size=N/A time=00:12:47.22 bitrate=N/A speed=15.2x    frame=18586 fps=364 q=-0.0 size=N/A time=00:12:55.19 bitrate=N/A speed=15.2x    frame=18782 fps=364 q=-0.0 size=N/A time=00:13:03.36 bitrate=N/A speed=15.2x    frame=18978 fps=364 q=-0.0 size=N/A time=00:13:11.54 bitrate=N/A speed=15.2x    frame=19175 fps=364 q=-0.0 size=N/A time=00:13:19.75 bitrate=N/A speed=15.2x    frame=19368 fps=364 q=-0.0 size=N/A time=00:13:27.80 bitrate=N/A speed=15.2x    frame=19569 fps=365 q=-0.0 size=N/A time=00:13:36.19 bitrate=N/A speed=15.2x    frame=19756 fps=365 q=-0.0 size=N/A time=00:13:43.98 bitrate=N/A speed=15.2x    frame=19959 fps=365 q=-0.0 size=N/A time=00:13:52.45 bitrate=N/A speed=15.2x    frame=20148 fps=365 q=-0.0 size=N/A time=00:14:00.33 bitrate=N/A speed=15.2x    frame=20349 fps=365 q=-0.0 size=N/A time=00:14:08.72 bitrate=N/A speed=15.2x    frame=20542 fps=365 q=-0.0 size=N/A time=00:14:16.77 bitrate=N/A speed=15.2x    frame=20743 fps=365 q=-0.0 size=N/A time=00:14:25.15 bitrate=N/A speed=15.2x    frame=20937 fps=365 q=-0.0 size=N/A time=00:14:33.24 bitrate=N/A speed=15.2x    frame=21137 fps=366 q=-0.0 size=N/A time=00:14:41.58 bitrate=N/A speed=15.3x    frame=21331 fps=366 q=-0.0 size=N/A time=00:14:49.68 bitrate=N/A speed=15.3x    frame=21526 fps=366 q=-0.0 size=N/A time=00:14:57.81 bitrate=N/A speed=15.3x    frame=21716 fps=366 q=-0.0 size=N/A time=00:15:05.73 bitrate=N/A speed=15.3x    frame=21912 fps=366 q=-0.0 size=N/A time=00:15:13.91 bitrate=N/A speed=15.3x    frame=22109 fps=366 q=-0.0 size=N/A time=00:15:22.12 bitrate=N/A speed=15.3x    frame=22298 fps=366 q=-0.0 size=N/A time=00:15:30.01 bitrate=N/A speed=15.3x    frame=22497 fps=366 q=-0.0 size=N/A time=00:15:38.31 bitrate=N/A speed=15.3x    frame=22695 fps=367 q=-0.0 size=N/A time=00:15:46.57 bitrate=N/A speed=15.3x    frame=22887 fps=367 q=-0.0 size=N/A time=00:15:54.57 bitrate=N/A speed=15.3x    frame=23081 fps=367 q=-0.0 size=N/A time=00:16:02.67 bitrate=N/A speed=15.3x    frame=23281 fps=367 q=-0.0 size=N/A time=00:16:11.01 bitrate=N/A speed=15.3x    frame=23480 fps=367 q=-0.0 size=N/A time=00:16:19.31 bitrate=N/A speed=15.3x    frame=23671 fps=367 q=-0.0 size=N/A time=00:16:27.27 bitrate=N/A speed=15.3x    frame=23869 fps=367 q=-0.0 size=N/A time=00:16:35.53 bitrate=N/A speed=15.3x    frame=24052 fps=367 q=-0.0 size=N/A time=00:16:43.16 bitrate=N/A speed=15.3x    frame=24248 fps=367 q=-0.0 size=N/A time=00:16:51.34 bitrate=N/A speed=15.3x    frame=24447 fps=367 q=-0.0 size=N/A time=00:16:59.64 bitrate=N/A speed=15.3x    frame=24643 fps=367 q=-0.0 size=N/A time=00:17:07.81 bitrate=N/A speed=15.3x    frame=24832 fps=367 q=-0.0 size=N/A time=00:17:15.70 bitrate=N/A speed=15.3x    frame=25028 fps=367 q=-0.0 size=N/A time=00:17:23.87 bitrate=N/A speed=15.3x    frame=25228 fps=368 q=-0.0 size=N/A time=00:17:32.21 bitrate=N/A speed=15.3x    frame=25414 fps=368 q=-0.0 size=N/A time=00:17:39.97 bitrate=N/A speed=15.3x    frame=25614 fps=368 q=-0.0 size=N/A time=00:17:48.31 bitrate=N/A speed=15.3x    frame=25801 fps=368 q=-0.0 size=N/A time=00:17:56.11 bitrate=N/A speed=15.3x    frame=25988 fps=368 q=-0.0 size=N/A time=00:18:03.91 bitrate=N/A speed=15.3x    frame=26180 fps=368 q=-0.0 size=N/A time=00:18:11.92 bitrate=N/A speed=15.3x    frame=26384 fps=368 q=-0.0 size=N/A time=00:18:20.43 bitrate=N/A speed=15.3x    frame=26580 fps=368 q=-0.0 size=N/A time=00:18:28.60 bitrate=N/A speed=15.3x    frame=26768 fps=368 q=-0.0 size=N/A time=00:18:36.44 bitrate=N/A speed=15.3x    frame=26970 fps=368 q=-0.0 size=N/A time=00:18:44.87 bitrate=N/A speed=15.4x    frame=27166 fps=368 q=-0.0 size=N/A time=00:18:53.04 bitrate=N/A speed=15.4x    frame=27358 fps=368 q=-0.0 size=N/A time=00:19:01.05 bitrate=N/A speed=15.4x    frame=27553 fps=368 q=-0.0 size=N/A time=00:19:09.18 bitrate=N/A speed=15.4x    frame=27755 fps=368 q=-0.0 size=N/A time=00:19:17.61 bitrate=N/A speed=15.4x    frame=27957 fps=369 q=-0.0 size=N/A time=00:19:26.03 bitrate=N/A speed=15.4x    frame=28139 fps=368 q=-0.0 size=N/A time=00:19:33.63 bitrate=N/A speed=15.4x    frame=28328 fps=368 q=-0.0 size=N/A time=00:19:41.51 bitrate=N/A speed=15.4x    frame=28524 fps=369 q=-0.0 size=N/A time=00:19:49.68 bitrate=N/A speed=15.4x    frame=28710 fps=368 q=-0.0 size=N/A time=00:19:57.44 bitrate=N/A speed=15.4x    frame=28881 fps=368 q=-0.0 size=N/A time=00:20:04.57 bitrate=N/A speed=15.4x    frame=29068 fps=368 q=-0.0 size=N/A time=00:20:12.37 bitrate=N/A speed=15.4x    frame=29251 fps=368 q=-0.0 size=N/A time=00:20:20.01 bitrate=N/A speed=15.4x    frame=29442 fps=368 q=-0.0 size=N/A time=00:20:27.97 bitrate=N/A speed=15.4x    frame=29629 fps=368 q=-0.0 size=N/A time=00:20:35.77 bitrate=N/A speed=15.4x    frame=29816 fps=368 q=-0.0 size=N/A time=00:20:43.57 bitrate=N/A speed=15.3x    frame=30009 fps=368 q=-0.0 size=N/A time=00:20:51.62 bitrate=N/A speed=15.3x    frame=30197 fps=368 q=-0.0 size=N/A time=00:20:59.46 bitrate=N/A speed=15.4x    frame=30395 fps=368 q=-0.0 size=N/A time=00:21:07.72 bitrate=N/A speed=15.4x    frame=30592 fps=368 q=-0.0 size=N/A time=00:21:15.94 bitrate=N/A speed=15.4x    frame=30789 fps=368 q=-0.0 size=N/A time=00:21:24.15 bitrate=N/A speed=15.4x    frame=30976 fps=368 q=-0.0 size=N/A time=00:21:31.95 bitrate=N/A speed=15.4x    frame=31186 fps=368 q=-0.0 size=N/A time=00:21:40.71 bitrate=N/A speed=15.4x    frame=31385 fps=369 q=-0.0 size=N/A time=00:21:49.01 bitrate=N/A speed=15.4x    frame=31578 fps=369 q=-0.0 size=N/A time=00:21:57.06 bitrate=N/A speed=15.4x    frame=31767 fps=369 q=-0.0 size=N/A time=00:22:04.94 bitrate=N/A speed=15.4x    frame=31954 fps=369 q=-0.0 size=N/A time=00:22:12.74 bitrate=N/A speed=15.4x    frame=32125 fps=368 q=-0.0 size=N/A time=00:22:19.88 bitrate=N/A speed=15.4x    frame=32297 fps=368 q=-0.0 size=N/A time=00:22:27.05 bitrate=N/A speed=15.4x    frame=32470 fps=368 q=-0.0 size=N/A time=00:22:34.26 bitrate=N/A speed=15.3x    frame=32647 fps=368 q=-0.0 size=N/A time=00:22:41.65 bitrate=N/A speed=15.3x    frame=32804 fps=367 q=-0.0 size=N/A time=00:22:48.20 bitrate=N/A speed=15.3x    frame=32986 fps=367 q=-0.0 size=N/A time=00:22:55.79 bitrate=N/A speed=15.3x    frame=33156 fps=367 q=-0.0 size=N/A time=00:23:02.88 bitrate=N/A speed=15.3x    frame=33331 fps=367 q=-0.0 size=N/A time=00:23:10.18 bitrate=N/A speed=15.3x    frame=33513 fps=367 q=-0.0 size=N/A time=00:23:17.77 bitrate=N/A speed=15.3x    frame=33694 fps=367 q=-0.0 size=N/A time=00:23:25.32 bitrate=N/A speed=15.3x    frame=33872 fps=367 q=-0.0 size=N/A time=00:23:32.74 bitrate=N/A speed=15.3x    [Parsed_psnr_16 @ 000001c8f11f5780] PSNR y:48.402415 u:50.474187 v:50.425030 average:48.983744 min:40.668760 max:72.527372
[out#0/null @ 000001c8f0c23a00] video:14630KiB audio:266264KiB subtitle:0KiB other streams:0KiB global headers:0KiB muxing overhead: unknown
frame=34047 fps=367 q=-0.0 Lsize=N/A time=00:23:40.04 bitrate=N/A speed=15.3x    
